{
  "accessors": [
    {
      "bufferView": 2,
      "componentType": 5126,
      "count": 3988,
      "max": [
        123.14768981933594,
        110.55047607421875,
        92.56272888183594
      ],
      "min": [
        -128.6345672607422,
        -132.8097686767578,
        -128.98379516601563
      ],
      "type": "VEC3"
    },
    {
      "bufferView": 2,
      "byteOffset": 47856,
      "componentType": 5126,
      "count": 3988,
      "max": [
        0.999061644077301,
        1.0,
        0.9997243285179138
      ],
      "min": [
        -0.999061644077301,
        -1.0,
        -0.9996100664138794
      ],
      "type": "VEC3"
    },
    {
      "bufferView": 1,
      "componentType": 5126,
      "count": 3988,
      "max": [
        1.0,
        1.0
      ],
      "min": [
        0.0,
        0.0
      ],
      "type": "VEC2"
    },
    {
      "bufferView": 0,
      "componentType": 5125,
      "count": 14412,
      "type": "SCALAR"
    },
    {
      "bufferView": 2,
      "byteOffset": 95712,
      "componentType": 5126,
      "count": 2364,
      "max": [
        120.5433349609375,
        36.192474365234375,
        14.424579620361328
      ],
      "min": [
        96.89806365966797,
        -86.89622497558594,
        3.55332088470459
      ],
      "type": "VEC3"
    },
    {
      "bufferView": 2,
      "byteOffset": 124080,
      "componentType": 5126,
      "count": 2364,
      "max": [
        0.9994134902954102,
        0.9991721510887146,
        0.9990862607955933
      ],
      "min": [
        -0.998621940612793,
        -0.9993146657943726,
        -0.9990841150283813
      ],
      "type": "VEC3"
    },
    {
      "bufferView": 1,
      "byteOffset": 31904,
      "componentType": 5126,
      "count": 2364,
      "max": [
        1.0,
        1.0
      ],
      "min": [
        0.0,
        0.0
      ],
      "type": "VEC2"
    },
    {
      "bufferView": 0,
      "byteOffset": 57648,
      "componentType": 5125,
      "count": 9696,
      "type": "SCALAR"
    },
    {
      "bufferView": 2,
      "byteOffset": 152448,
      "componentType": 5126,
      "count": 1975,
      "max": [
        84.42991638183594,
        87.92181396484375,
        90.57069396972656
      ],
      "min": [
        27.946271896362305,
        -130.50048828125,
        -128.9207000732422
      ],
      "type": "VEC3"
    },
    {
      "bufferView": 2,
      "byteOffset": 176148,
      "componentType": 5126,
      "count": 1975,
      "max": [
        0.9994694590568542,
        0.9981493353843689,
        0.9997702836990356
      ],
      "min": [
        -0.998570442199707,
        -0.9972739815711975,
        -0.9997215867042542
      ],
      "type": "VEC3"
    },
    {
      "bufferView": 1,
      "byteOffset": 50816,
      "componentType": 5126,
      "count": 1975,
      "max": [
        1.0,
        1.0
      ],
      "min": [
        0.0,
        0.0
      ],
      "type": "VEC2"
    },
    {
      "bufferView": 0,
      "byteOffset": 96432,
      "componentType": 5125,
      "count": 8640,
      "type": "SCALAR"
    },
    {
      "bufferView": 2,
      "byteOffset": 199848,
      "componentType": 5126,
      "count": 1975,
      "max": [
        -23.79728126525879,
        107.02310943603516,
        95.26256561279297
      ],
      "min": [
        -80.28092956542969,
        -111.39918518066406,
        -124.22882843017578
      ],
      "type": "VEC3"
    },
    {
      "bufferView": 2,
      "byteOffset": 223548,
      "componentType": 5126,
      "count": 1975,
      "max": [
        0.9994694590568542,
        0.9981492161750793,
        0.9997702240943909
      ],
      "min": [
        -0.9985703825950623,
        -0.9972740411758423,
        -0.9997216463088989
      ],
      "type": "VEC3"
    },
    {
      "bufferView": 1,
      "byteOffset": 66616,
      "componentType": 5126,
      "count": 1975,
      "max": [
        1.0,
        1.0
      ],
      "min": [
        0.0,
        0.0
      ],
      "type": "VEC2"
    },
    {
      "bufferView": 0,
      "byteOffset": 130992,
      "componentType": 5125,
      "count": 8640,
      "type": "SCALAR"
    },
    {
      "bufferView": 2,
      "byteOffset": 247248,
      "componentType": 5126,
      "count": 1975,
      "max": [
        120.30307006835938,
        72.07079315185547,
        98.00749206542969
      ],
      "min": [
        -105.8860855102539,
        24.341203689575195,
        -132.2525177001953
      ],
      "type": "VEC3"
    },
    {
      "bufferView": 2,
      "byteOffset": 270948,
      "componentType": 5126,
      "count": 1975,
      "max": [
        0.9971736073493958,
        0.9999428391456604,
        0.9997102618217468
      ],
      "min": [
        -0.9979872107505798,
        -0.9992910623550415,
        -0.9998087882995605
      ],
      "type": "VEC3"
    },
    {
      "bufferView": 1,
      "byteOffset": 82416,
      "componentType": 5126,
      "count": 1975,
      "max": [
        1.0,
        1.0
      ],
      "min": [
        0.0,
        0.0
      ],
      "type": "VEC2"
    },
    {
      "bufferView": 0,
      "byteOffset": 165552,
      "componentType": 5125,
      "count": 8640,
      "type": "SCALAR"
    },
    {
      "bufferView": 2,
      "byteOffset": 294648,
      "componentType": 5126,
      "count": 1975,
      "max": [
        101.21969604492188,
        -36.258060455322266,
        98.83479309082031
      ],
      "min": [
        -124.9694595336914,
        -83.9876480102539,
        -131.4252166748047
      ],
      "type": "VEC3"
    },
    {
      "bufferView": 2,
      "byteOffset": 318348,
      "componentType": 5126,
      "count": 1975,
      "max": [
        0.9971740245819092,
        0.9999428391456604,
        0.9997102618217468
      ],
      "min": [
        -0.9979872107505798,
        -0.9992910027503967,
        -0.9998087882995605
      ],
      "type": "VEC3"
    },
    {
      "bufferView": 1,
      "byteOffset": 98216,
      "componentType": 5126,
      "count": 1975,
      "max": [
        1.0,
        1.0
      ],
      "min": [
        0.0,
        0.0
      ],
      "type": "VEC2"
    },
    {
      "bufferView": 0,
      "byteOffset": 200112,
      "componentType": 5125,
      "count": 8640,
      "type": "SCALAR"
    },
    {
      "bufferView": 2,
      "byteOffset": 342048,
      "componentType": 5126,
      "count": 44957,
      "max": [
        126.81104278564453,
        116.23747253417969,
        95.00535583496094
      ],
      "min": [
        -129.76361083984375,
        -138.82638549804688,
        -15.51991081237793
      ],
      "type": "VEC3"
    },
    {
      "bufferView": 2,
      "byteOffset": 881532,
      "componentType": 5126,
      "count": 44957,
      "max": [
        0.999986469745636,
        0.9999598264694214,
        1.0
      ],
      "min": [
        -0.9999746680259705,
        -0.9999984502792358,
        -0.4916548430919647
      ],
      "type": "VEC3"
    },
    {
      "bufferView": 1,
      "byteOffset": 114016,
      "componentType": 5126,
      "count": 44957,
      "max": [
        1.0,
        1.0
      ],
      "min": [
        0.0,
        0.0
      ],
      "type": "VEC2"
    },
    {
      "bufferView": 0,
      "byteOffset": 234672,
      "componentType": 5125,
      "count": 240000,
      "type": "SCALAR"
    }
  ],
  "asset": {
    "extras": {
      "author": "totini (https://sketchfab.com/totini)",
      "license": "CC-BY-4.0 (http://creativecommons.org/licenses/by/4.0/)",
      "source": "https://sketchfab.com/3d-models/pubg-drop-box-7dc71a8cab1d46cca02bb68b35136d7b",
      "title": "Pubg Drop Box"
    },
    "generator": "Sketchfab-15.29.0",
    "version": "2.0"
  },
  "bufferViews": [
    {
      "buffer": 0,
      "byteLength": 1194672,
      "name": "floatBufferViews",
      "target": 34963
    },
    {
      "buffer": 0,
      "byteLength": 473672,
      "byteOffset": 1194672,
      "byteStride": 8,
      "name": "floatBufferViews",
      "target": 34962
    },
    {
      "buffer": 0,
      "byteLength": 1421016,
      "byteOffset": 1668344,
      "byteStride": 12,
      "name": "floatBufferViews",
      "target": 34962
    }
  ],
  "buffers": [
    {
      "byteLength": 3089360,
      "uri": "scene.bin"
    }
  ],
  "materials": [
    {
      "doubleSided": true,
      "name": "default",
      "pbrMetallicRoughness": {
        "metallicFactor": 0.0,
        "roughnessFactor": 0.6
      }
    }
  ],
  "meshes": [
    {
      "name": "Object_0",
      "primitives": [
        {
          "attributes": {
            "NORMAL": 1,
            "POSITION": 0,
            "TEXCOORD_0": 2
          },
          "indices": 3,
          "material": 0,
          "mode": 4
        }
      ]
    },
    {
      "name": "Object_1",
      "primitives": [
        {
          "attributes": {
            "NORMAL": 5,
            "POSITION": 4,
            "TEXCOORD_0": 6
          },
          "indices": 7,
          "material": 0,
          "mode": 4
        }
      ]
    },
    {
      "name": "Object_2",
      "primitives": [
        {
          "attributes": {
            "NORMAL": 9,
            "POSITION": 8,
            "TEXCOORD_0": 10
          },
          "indices": 11,
          "material": 0,
          "mode": 4
        }
      ]
    },
    {
      "name": "Object_3",
      "primitives": [
        {
          "attributes": {
            "NORMAL": 13,
            "POSITION": 12,
            "TEXCOORD_0": 14
          },
          "indices": 15,
          "material": 0,
          "mode": 4
        }
      ]
    },
    {
      "name": "Object_4",
      "primitives": [
        {
          "attributes": {
            "NORMAL": 17,
            "POSITION": 16,
            "TEXCOORD_0": 18
          },
          "indices": 19,
          "material": 0,
          "mode": 4
        }
      ]
    },
    {
      "name": "Object_5",
      "primitives": [
        {
          "attributes": {
            "NORMAL": 21,
            "POSITION": 20,
            "TEXCOORD_0": 22
          },
          "indices": 23,
          "material": 0,
          "mode": 4
        }
      ]
    },
    {
      "name": "Object_6",
      "primitives": [
        {
          "attributes": {
            "NORMAL": 25,
            "POSITION": 24,
            "TEXCOORD_0": 26
          },
          "indices": 27,
          "material": 0,
          "mode": 4
        }
      ]
    }
  ],
  "nodes": [
    {
      "children": [
        1
      ],
      "matrix": [
        1.0,
        0.0,
        0.0,
        0.0,
        0.0,
        2.220446049250313e-16,
        -1.0,
        0.0,
        0.0,
        1.0,
        2.220446049250313e-16,
        0.0,
        0.0,
        0.0,
        0.0,
        1.0
      ],
      "name": "Sketchfab_model"
    },
    {
      "children": [
        2,
        3,
        4,
        5,
        6,
        7,
        8
      ],
      "name": "Untitled 2.obj.cleaner.materialmerger.gles"
    },
    {
      "mesh": 0,
      "name": "Object_2"
    },
    {
      "mesh": 1,
      "name": "Object_3"
    },
    {
      "mesh": 2,
      "name": "Object_4"
    },
    {
      "mesh": 3,
      "name": "Object_5"
    },
    {
      "mesh": 4,
      "name": "Object_6"
    },
    {
      "mesh": 5,
      "name": "Object_7"
    },
    {
      "mesh": 6,
      "name": "Object_8"
    }
  ],
  "scene": 0,
  "scenes": [
    {
      "name": "Sketchfab_Scene",
      "nodes": [
        0
      ]
    }
  ]
}
